<svg width="369" height="369" viewBox="0 0 369 369" fill="none" xmlns="http://www.w3.org/2000/svg">
<path d="M195.574 2.18761C207.39 8.41223 216.818 19.7587 225.164 29.922C229.885 35.5116 235.121 39.3588 241.562 42.7618C242.243 43.1537 242.924 43.5456 243.625 43.9493C249.677 46.4872 256.52 45.8962 262.953 45.9025C265.212 45.9208 267.471 45.9404 269.73 45.9611C273.27 45.99 276.809 46.0118 280.348 46.0123C283.78 46.0157 287.209 46.0503 290.641 46.09C292.208 46.0794 292.208 46.0794 293.808 46.0685C302.11 46.2047 308.575 48.4451 315 53.7892C315.516 54.4195 316.031 55.0499 316.562 55.6993C317.367 56.641 317.367 56.641 318.188 57.6017C322.026 63.6325 321.87 69.773 321.906 76.6798C321.921 77.7328 321.935 78.7859 321.951 79.8708C321.997 83.2303 322.031 86.5897 322.062 89.9493C322.104 94.3597 322.158 98.7697 322.219 103.18C322.227 104.674 322.227 104.674 322.235 106.199C322.401 119.412 322.401 119.412 327.875 131.074C328.501 131.892 329.128 132.709 329.773 133.551C330.364 134.281 330.954 135.01 331.562 135.762C331.988 136.326 332.413 136.891 332.852 137.473C335.545 140.935 338.685 143.683 341.988 146.527C367.52 168.689 367.52 168.689 368.938 182.387C368.414 197.064 357.836 206.82 347.812 216.199C344.583 219.194 341.358 222.136 337.895 224.859C335.3 226.976 333.177 229.217 331 231.762C329.884 233.03 329.884 233.03 328.746 234.324C322.984 242.369 321.988 252.153 322.094 261.738C322.087 262.83 322.08 263.921 322.072 265.045C322.051 268.493 322.053 271.939 322.062 275.387C322.075 279.942 322.061 284.496 322.031 289.051C322.048 290.59 322.048 290.59 322.066 292.161C322.012 299.944 320.553 306.898 315.703 313.164C315.079 313.671 314.455 314.177 313.812 314.699C312.892 315.486 312.892 315.486 311.953 316.289C304.819 320.684 298.483 321.183 290.301 321.133C288.107 321.15 285.914 321.168 283.721 321.186C280.302 321.196 276.884 321.199 273.466 321.198C250.577 320.707 250.577 320.707 231.188 331.512C230.599 332.046 230.01 332.579 229.403 333.129C225.116 337.071 221.269 341.273 217.562 345.762C207.989 356.871 198.864 366.094 183.75 368.324C172.394 367.783 162.859 358.551 155.633 350.652C154.483 349.334 153.344 348.008 152.215 346.672C149.499 343.533 146.524 340.666 143.562 337.762C142.738 336.916 141.913 336.071 141.062 335.199C140.238 334.395 139.413 333.591 138.562 332.762C138.098 332.278 137.634 331.795 137.156 331.297C124.757 319.354 108.263 321.099 92.3125 321.199C88.783 321.216 85.2544 321.225 81.7249 321.21C79.5423 321.2 77.3594 321.209 75.1769 321.239C67.1842 321.211 61.1787 319.556 54.8125 314.637C48.659 306.774 46.8288 299.782 46.9258 289.91C46.9102 288.262 46.9102 288.262 46.8943 286.58C46.8648 283.099 46.868 279.618 46.875 276.137C46.8661 272.648 46.85 269.16 46.8235 265.672C46.8087 263.51 46.8047 261.349 46.8133 259.187C46.7699 247.684 43.9091 237.405 35.7227 228.836C34.6216 227.904 33.4962 226.998 32.3359 226.141C29.8666 224.221 27.7708 221.977 25.5625 219.762C24.4788 218.773 23.3886 217.792 22.293 216.817C11.4473 207.124 2.19893 197.853 0 182.949C0.822472 165.712 19.9906 152.449 31.5625 141.762C32.4313 140.974 33.3002 140.187 34.1953 139.375C39.0897 134.788 42.048 129.98 44.5625 123.762C44.9084 122.96 45.2542 122.158 45.6106 121.332C46.964 116.256 46.8209 111.382 46.8008 106.152C46.8162 103.848 46.8325 101.543 46.8496 99.2384C46.866 95.6266 46.875 92.0153 46.8679 88.4034C46.8653 84.9026 46.8935 81.4031 46.9258 77.9025C46.9156 76.8355 46.9054 75.7685 46.8949 74.6691C47.007 65.9857 49.5091 59.7749 54.75 52.8868C62.2872 47.192 70.0263 46.1981 79.2383 46.3282C81.4707 46.3186 83.7031 46.3089 85.9355 46.2989C89.4043 46.3075 92.8729 46.3243 96.3416 46.3465C119.804 46.5205 119.804 46.5205 139.156 34.2228C139.95 33.4107 140.744 32.5986 141.562 31.7618C142.418 30.9291 143.274 30.0964 144.156 29.2384C147.976 25.499 151.664 21.7116 155.125 17.6368C166.084 4.99526 178.718 -4.45705 195.574 2.18761Z" fill="#FEFEFE"/>
</svg>
